<?xml version="1.0" encoding="utf-8"?>
<!-- Generator: Adobe Illustrator 18.1.1, SVG Export Plug-In . SVG Version: 6.00 Build 0)  -->
<svg version="1.1" id="Layer_1" xmlns="http://www.w3.org/2000/svg" xmlns:xlink="http://www.w3.org/1999/xlink" x="0px" y="0px"
	 viewBox="0 0 179.8 150.7" enable-background="new 0 0 179.8 150.7" xml:space="preserve">
<polygon fill="#E6E7E8" points="78.3,19.6 146.9,47.4 146.9,125.2 78.3,125.2 "/>
<polygon fill="#D0D2D3" points="38.3,22.5 106.8,50.3 106.8,128.2 38.3,128.2 "/>
<g>
	<polygon fill="#929497" points="63.2,45.8 60.7,45.8 54.2,45.8 54.2,47.9 61,47.9 61.1,54.8 63.3,54.8 63.3,45.8 	"/>
	<polygon fill="#929497" points="63.2,72.4 60.7,72.4 54.2,72.4 54.2,74.6 61,74.6 61.1,81.4 63.3,81.4 63.3,72.4 	"/>
	<polygon fill="#929497" points="87.3,72.4 84.7,72.4 78.3,72.4 78.3,74.6 85.1,74.6 85.2,81.4 87.3,81.4 87.3,72.4 	"/>
	<polygon fill="#929497" points="63.2,95.3 60.7,95.3 54.2,95.3 54.2,97.4 61,97.4 61.1,104.3 63.3,104.3 63.3,95.3 	"/>
	<polygon fill="#929497" points="87.3,95.3 84.7,95.3 78.3,95.3 78.3,97.4 85.1,97.4 85.2,104.3 87.3,104.3 87.3,95.3 	"/>
</g>
</svg>
