<?xml version="1.0" encoding="utf-8"?>
<!-- Generator: Adobe Illustrator 18.1.1, SVG Export Plug-In . SVG Version: 6.00 Build 0)  -->
<svg version="1.1" id="Layer_1" xmlns="http://www.w3.org/2000/svg" xmlns:xlink="http://www.w3.org/1999/xlink" x="0px" y="0px"
	 viewBox="0 0 467.8 266.9" enable-background="new 0 0 467.8 266.9" xml:space="preserve">
<polygon fill="#F2F2F2" points="127.5,159.6 2.1,266.9 183.8,267.1 183.8,266.9 325,267.1 325,267.1 345.9,267.1 346,266.6 
	467.8,162.4 465.1,160 "/>
<polygon fill="#F2F2F2" points="129.1,195.4 2.1,266.9 0.9,165 1.1,165 0.1,85.9 0.1,85.9 0,74.2 0.6,74.2 124,4.7 126.8,6.2 "/>
<rect x="124.7" y="0" fill="#E6E7E8" width="343.1" height="159.6"/>
<g>
	<rect x="369" y="45.3" fill="#F4F4F4" width="23.8" height="24.9"/>
	<rect x="398.5" y="45.3" fill="#F4F4F4" width="23.8" height="24.9"/>
	<rect x="369" y="75.1" fill="#F4F4F4" width="23.8" height="24.9"/>
	<rect x="398.5" y="75.1" fill="#F4F4F4" width="23.8" height="24.9"/>
</g>
<g id="Table_2_">
	<polygon fill="#CCCBCB" points="350.5,141.9 235,141.8 163.8,194.2 279.4,194.3 	"/>
	<rect x="163.8" y="194.2" fill="#CCCBCB" width="9.5" height="46.4"/>
	<rect x="173.4" y="194.2" fill="#CCCBCB" width="100.9" height="3.9"/>
	<rect x="269.5" y="194.2" fill="#CCCBCB" width="9.5" height="46.4"/>
	<rect x="340" y="141.9" fill="#CCCBCB" width="7" height="44.3"/>
</g>
<polygon fill="#E6E7E8" points="88.7,67.7 50.1,98.5 50.1,225.9 88.4,193.7 "/>
</svg>
