<?xml version="1.0" encoding="utf-8"?>
<!-- Generator: Adobe Illustrator 18.1.1, SVG Export Plug-In . SVG Version: 6.00 Build 0)  -->
<svg version="1.1" id="Layer_1" xmlns="http://www.w3.org/2000/svg" xmlns:xlink="http://www.w3.org/1999/xlink" x="0px" y="0px"
	 viewBox="0 0 624.1 393.2" enable-background="new 0 0 624.1 393.2" xml:space="preserve">
<ellipse fill="#E6E7E8" stroke="#D0D2D3" stroke-miterlimit="10" cx="312.6" cy="323.4" rx="300.7" ry="53.4"/>
<rect x="419" y="232.8" fill="#E6E7E8" width="62.2" height="109.4"/>
<g>
	<polygon fill="#D0D2D3" points="442.1,241.4 439.6,241.4 433.1,241.4 433.1,243.6 439.9,243.6 440.1,250.4 442.2,250.4 
		442.2,241.4 	"/>
	<polygon fill="#D0D2D3" points="466.2,241.4 463.7,241.4 457.2,241.4 457.2,243.6 464,243.6 464.1,250.4 466.3,250.4 466.3,241.4 	
		"/>
	<polygon fill="#D0D2D3" points="442.1,264.3 439.6,264.3 433.1,264.3 433.1,266.4 439.9,266.4 440.1,273.3 442.2,273.3 
		442.2,264.3 	"/>
	<polygon fill="#D0D2D3" points="466.2,264.3 463.7,264.3 457.2,264.3 457.2,266.4 464,266.4 464.1,273.3 466.3,273.3 466.3,264.3 	
		"/>
	<polygon fill="#D0D2D3" points="442.1,291 439.6,291 433.1,291 433.1,293.1 439.9,293.1 440.1,300 442.2,300 442.2,291 	"/>
	<polygon fill="#D0D2D3" points="466.2,291 463.7,291 457.2,291 457.2,293.1 464,293.1 464.1,300 466.3,300 466.3,291 	"/>
	<polygon fill="#D0D2D3" points="442.1,313.8 439.6,313.8 433.1,313.8 433.1,316 439.9,316 440.1,322.8 442.2,322.8 442.2,313.8 	
		"/>
	<polygon fill="#D0D2D3" points="466.2,313.8 463.7,313.8 457.2,313.8 457.2,316 464,316 464.1,322.8 466.3,322.8 466.3,313.8 	"/>
</g>
<rect x="317.6" y="160.5" fill="#DBDBDA" width="62.2" height="164.1"/>
<g>
	<polygon fill="#BBBDBF" points="340.8,175.4 338.3,175.4 331.8,175.4 331.8,177.6 338.6,177.6 338.7,184.4 340.9,184.4 
		340.9,175.4 	"/>
	<polygon fill="#BBBDBF" points="364.9,175.4 362.3,175.4 355.9,175.4 355.9,177.6 362.7,177.6 362.8,184.4 365,184.4 365,175.4 	
		"/>
	<polygon fill="#BBBDBF" points="340.8,198.3 338.3,198.3 331.8,198.3 331.8,200.5 338.6,200.5 338.7,207.3 340.9,207.3 
		340.9,198.3 	"/>
	<polygon fill="#BBBDBF" points="364.9,198.3 362.3,198.3 355.9,198.3 355.9,200.5 362.7,200.5 362.8,207.3 365,207.3 365,198.3 	
		"/>
	<polygon fill="#BBBDBF" points="340.8,223.8 338.3,223.8 331.8,223.8 331.8,225.9 338.6,225.9 338.7,232.8 340.9,232.8 
		340.9,223.8 	"/>
	<polygon fill="#BBBDBF" points="364.9,223.8 362.3,223.8 355.9,223.8 355.9,225.9 362.7,225.9 362.8,232.8 365,232.8 365,223.8 	
		"/>
	<polygon fill="#BBBDBF" points="340.8,246.7 338.3,246.7 331.8,246.7 331.8,248.8 338.6,248.8 338.7,255.7 340.9,255.7 
		340.9,246.7 	"/>
	<polygon fill="#BBBDBF" points="364.9,246.7 362.3,246.7 355.9,246.7 355.9,248.8 362.7,248.8 362.8,255.7 365,255.7 365,246.7 	
		"/>
	<polygon fill="#BBBDBF" points="340.8,273.3 338.3,273.3 331.8,273.3 331.8,275.5 338.6,275.5 338.7,282.3 340.9,282.3 
		340.9,273.3 	"/>
	<polygon fill="#BBBDBF" points="364.9,273.3 362.3,273.3 355.9,273.3 355.9,275.5 362.7,275.5 362.8,282.3 365,282.3 365,273.3 	
		"/>
	<polygon fill="#BBBDBF" points="340.8,296.2 338.3,296.2 331.8,296.2 331.8,298.4 338.6,298.4 338.7,305.2 340.9,305.2 
		340.9,296.2 	"/>
	<polygon fill="#BBBDBF" points="364.9,296.2 362.3,296.2 355.9,296.2 355.9,298.4 362.7,298.4 362.8,305.2 365,305.2 365,296.2 	
		"/>
</g>
<rect x="212.1" y="151.2" fill="#DBDBDA" width="62.2" height="164.1"/>
<path fill="#DBDBDA" stroke="#D0D2D3" stroke-miterlimit="10" d="M354.4,98c0-7.9-27.6-14.4-63.3-15.3l-1.6-2.6l-0.8-17.3l-8.2-44.4
	l-8.3,43.2v18.8l-1.7,2.3c-34.6,1.2-61,7.6-61,15.3c0,7.7,26.6,14.1,61.4,15.3l2.3,65.7v71v71h3.7h3.7h3.7h3.7v-71v-71l3.6-65.6
	C327,112.4,354.4,105.9,354.4,98z"/>
<path fill="#FAF7AC" d="M292.2,105.9h-2.3c-1.3,0-2.4-1.1-2.4-2.4V92.6c0-1.3,1.1-2.4,2.4-2.4h2.3c1.3,0,2.4,1.1,2.4,2.4v10.9
	C294.6,104.8,293.6,105.9,292.2,105.9z"/>
<path fill="#FAF7AC" d="M313.7,103.8h-2.3c-1,0-1.8-0.8-1.8-1.8v-7.9c0-1,0.8-1.8,1.8-1.8h2.3c1,0,1.8,0.8,1.8,1.8v7.9
	C315.5,103,314.7,103.8,313.7,103.8z"/>
<path fill="#FAF7AC" d="M331.7,103.8h-1.6c-1.2,0-2.2-1-2.2-2.2v-5.7c0-1.2,1-2.2,2.2-2.2h1.6c1.2,0,2.2,1,2.2,2.2v5.7
	C333.9,102.9,332.9,103.8,331.7,103.8z"/>
<g>
	<path fill="#FAF7AC" d="M267.6,90.2h2.3c1.3,0,2.4,1.1,2.4,2.4v10.9c0,1.3-1.1,2.4-2.4,2.4h-2.3c-1.3,0-2.4-1.1-2.4-2.4V92.6
		C265.2,91.3,266.3,90.2,267.6,90.2z"/>
	<path fill="#FAF7AC" d="M246.1,92.2h2.3c1,0,1.8,0.8,1.8,1.8v7.9c0,1-0.8,1.8-1.8,1.8h-2.3c-1,0-1.8-0.8-1.8-1.8v-7.9
		C244.3,93,245.1,92.2,246.1,92.2z"/>
	<path fill="#FAF7AC" d="M228.1,92.2h1.6c1.2,0,2.2,1,2.2,2.2v5.7c0,1.2-1,2.2-2.2,2.2h-1.6c-1.2,0-2.2-1-2.2-2.2v-5.7
		C225.9,93.2,226.9,92.2,228.1,92.2z"/>
</g>
<g>
	<polygon fill="#FAF7AC" points="236,166.1 233.5,166.1 227,166.1 227,168.3 233.8,168.3 234,175.1 236.1,175.1 236.1,166.1 	"/>
	<polygon fill="#FAF7AC" points="260.1,166.1 257.6,166.1 251.1,166.1 251.1,168.3 257.9,168.3 258,175.1 260.2,175.1 260.2,166.1 	
		"/>
	<polygon fill="#FAF7AC" points="236,189 233.5,189 227,189 227,191.1 233.8,191.1 234,198 236.1,198 236.1,189 	"/>
	<polygon fill="#FAF7AC" points="260.1,189 257.6,189 251.1,189 251.1,191.1 257.9,191.1 258,198 260.2,198 260.2,189 	"/>
	<polygon fill="#FAF7AC" points="236,214.5 233.5,214.5 227,214.5 227,216.6 233.8,216.6 234,223.5 236.1,223.5 236.1,214.5 	"/>
	<polygon fill="#FAF7AC" points="260.1,214.5 257.6,214.5 251.1,214.5 251.1,216.6 257.9,216.6 258,223.5 260.2,223.5 260.2,214.5 	
		"/>
	<polygon fill="#FAF7AC" points="236,237.4 233.5,237.4 227,237.4 227,239.5 233.8,239.5 234,246.4 236.1,246.4 236.1,237.4 	"/>
	<polygon fill="#FAF7AC" points="260.1,237.4 257.6,237.4 251.1,237.4 251.1,239.5 257.9,239.5 258,246.4 260.2,246.4 260.2,237.4 	
		"/>
	<polygon fill="#FAF7AC" points="236,264 233.5,264 227,264 227,266.2 233.8,266.2 234,273 236.1,273 236.1,264 	"/>
	<polygon fill="#FAF7AC" points="260.1,264 257.6,264 251.1,264 251.1,266.2 257.9,266.2 258,273 260.2,273 260.2,264 	"/>
	<polygon fill="#FAF7AC" points="236,286.9 233.5,286.9 227,286.9 227,289 233.8,289 234,295.9 236.1,295.9 236.1,286.9 	"/>
	<polygon fill="#FAF7AC" points="260.1,286.9 257.6,286.9 251.1,286.9 251.1,289 257.9,289 258,295.9 260.2,295.9 260.2,286.9 	"/>
</g>
<rect x="372.2" y="173.5" fill="#D0D2D3" width="71.4" height="178.1"/>
<polygon fill="#FAF7AC" points="403.2,200.9 400.5,200.9 393.7,200.9 393.7,203.1 400.8,203.1 401,210.3 403.2,210.3 403.2,200.9 
	"/>
<polygon fill="#FAF7AC" points="428.4,200.9 425.7,200.9 419,200.9 419,203.1 426.1,203.1 426.2,210.3 428.4,210.3 428.4,200.9 "/>
<polygon fill="#FAF7AC" points="403.2,227.6 400.5,227.6 393.7,227.6 393.7,229.8 400.8,229.8 401,237 403.2,237 403.2,227.6 "/>
<polygon fill="#FAF7AC" points="428.4,227.6 425.7,227.6 419,227.6 419,229.8 426.1,229.8 426.2,237 428.4,237 428.4,227.6 "/>
<polygon fill="#FAF7AC" points="403.2,251.5 400.5,251.5 393.7,251.5 393.7,253.8 400.8,253.8 401,261 403.2,261 403.2,251.5 "/>
<polygon fill="#FAF7AC" points="428.4,251.5 425.7,251.5 419,251.5 419,253.8 426.1,253.8 426.2,261 428.4,261 428.4,251.5 "/>
<polygon fill="#FAF7AC" points="403.2,279.4 400.5,279.4 393.7,279.4 393.7,281.7 400.8,281.7 401,288.9 403.2,288.9 403.2,279.4 
	"/>
<polygon fill="#FAF7AC" points="428.4,279.4 425.7,279.4 419,279.4 419,281.7 426.1,281.7 426.2,288.9 428.4,288.9 428.4,279.4 "/>
<polygon fill="#FAF7AC" points="403.2,303.4 400.5,303.4 393.7,303.4 393.7,305.6 400.8,305.6 401,312.8 403.2,312.8 403.2,303.4 
	"/>
<polygon fill="#FAF7AC" points="428.4,303.4 425.7,303.4 419,303.4 419,305.6 426.1,305.6 426.2,312.8 428.4,312.8 428.4,303.4 "/>
<rect x="253" y="229.1" fill="#BBBDBF" width="68.6" height="105.6"/>
<g>
	<polygon fill="#929497" points="277.9,252.3 275.4,252.3 268.9,252.3 268.9,254.5 275.7,254.5 275.8,261.3 278,261.3 278,252.3 	
		"/>
	<polygon fill="#929497" points="302,252.3 299.4,252.3 293,252.3 293,254.5 299.8,254.5 299.9,261.3 302,261.3 302,252.3 	"/>
	<polygon fill="#929497" points="277.9,279 275.4,279 268.9,279 268.9,281.1 275.7,281.1 275.8,288 278,288 278,279 	"/>
	<polygon fill="#929497" points="302,279 299.4,279 293,279 293,281.1 299.8,281.1 299.9,288 302,288 302,279 	"/>
	<polygon fill="#929497" points="277.9,301.9 275.4,301.9 268.9,301.9 268.9,304 275.7,304 275.8,310.9 278,310.9 278,301.9 	"/>
	<polygon fill="#929497" points="302,301.9 299.4,301.9 293,301.9 293,304 299.8,304 299.9,310.9 302,310.9 302,301.9 	"/>
</g>
<rect x="75.3" y="270.5" fill="#E2E2E1" width="80.5" height="64.2"/>
<g>
	<polygon fill="#BBBDBF" points="101.3,289.5 98.8,289.5 92.3,289.5 92.3,291.6 99.1,291.6 99.3,298.5 101.4,298.5 101.4,289.5 	"/>
	<polygon fill="#BBBDBF" points="125.4,289.5 122.9,289.5 116.4,289.5 116.4,291.6 123.2,291.6 123.3,298.5 125.5,298.5 
		125.5,289.5 	"/>
	<polygon fill="#BBBDBF" points="101.3,312.4 98.8,312.4 92.3,312.4 92.3,314.5 99.1,314.5 99.3,321.4 101.4,321.4 101.4,312.4 	"/>
	<polygon fill="#BBBDBF" points="125.4,312.4 122.9,312.4 116.4,312.4 116.4,314.5 123.2,314.5 123.3,321.4 125.5,321.4 
		125.5,312.4 	"/>
</g>
<rect x="143.6" y="164.1" fill="#D0D2D3" width="71.4" height="178.1"/>
<polygon fill="#A6A8AB" points="168.3,194.4 165.6,194.4 158.8,194.4 158.8,196.7 166,196.7 166.1,203.9 168.3,203.9 168.3,194.4 
	"/>
<polygon fill="#A6A8AB" points="193.5,194.4 190.8,194.4 184.1,194.4 184.1,196.7 191.2,196.7 191.3,203.9 193.5,203.9 193.5,194.4 
	"/>
<polygon fill="#A6A8AB" points="168.3,221.1 165.6,221.1 158.8,221.1 158.8,223.4 166,223.4 166.1,230.6 168.3,230.6 168.3,221.1 
	"/>
<polygon fill="#A6A8AB" points="193.5,221.1 190.8,221.1 184.1,221.1 184.1,223.4 191.2,223.4 191.3,230.6 193.5,230.6 193.5,221.1 
	"/>
<polygon fill="#A6A8AB" points="168.3,245.1 165.6,245.1 158.8,245.1 158.8,247.3 166,247.3 166.1,254.5 168.3,254.5 168.3,245.1 
	"/>
<polygon fill="#A6A8AB" points="193.5,245.1 190.8,245.1 184.1,245.1 184.1,247.3 191.2,247.3 191.3,254.5 193.5,254.5 193.5,245.1 
	"/>
<polygon fill="#A6A8AB" points="168.3,273 165.6,273 158.8,273 158.8,275.3 166,275.3 166.1,282.5 168.3,282.5 168.3,273 "/>
<polygon fill="#A6A8AB" points="193.5,273 190.8,273 184.1,273 184.1,275.3 191.2,275.3 191.3,282.5 193.5,282.5 193.5,273 "/>
<polygon fill="#A6A8AB" points="168.3,297 165.6,297 158.8,297 158.8,299.2 166,299.2 166.1,306.4 168.3,306.4 168.3,297 "/>
<polygon fill="#A6A8AB" points="193.5,297 190.8,297 184.1,297 184.1,299.2 191.2,299.2 191.3,306.4 193.5,306.4 193.5,297 "/>
<rect x="279.1" y="39.7" fill="#E6E7E8" width="1.4" height="0"/>
<polygon fill="#E2E2E1" points="475.9,258.2 558.5,258.2 558.5,328.1 477.1,328.1 "/>
<g>
	<polygon fill="#FAF7AC" points="506.4,279.6 503.8,279.6 497.4,279.6 497.4,281.7 504.2,281.7 504.3,288.6 506.4,288.6 
		506.4,279.6 	"/>
	<polygon fill="#FAF7AC" points="530.5,279.6 527.9,279.6 521.5,279.6 521.5,281.7 528.3,281.7 528.4,288.6 530.5,288.6 
		530.5,279.6 	"/>
	<polygon fill="#FAF7AC" points="506.4,302.5 503.8,302.5 497.4,302.5 497.4,304.6 504.2,304.6 504.3,311.5 506.4,311.5 
		506.4,302.5 	"/>
	<polygon fill="#FAF7AC" points="530.5,302.5 527.9,302.5 521.5,302.5 521.5,304.6 528.3,304.6 528.4,311.5 530.5,311.5 
		530.5,302.5 	"/>
</g>
</svg>
